<svg version="1" xmlns="http://www.w3.org/2000/svg" width="682.667" height="682.667" viewBox="0 0 512.000000 512.000000"><path d="M227.8 1.6c-41.9 4.8-79.7 18.7-115.3 42.3l-13 8.6 9.8.3 9.7.3v114.4c0 63 .4 114.5.8 114.5.5 0 4.9-5.3 9.9-11.8 8.7-11.2 77.5-92.7 83.2-98.5l2.7-2.7 26.6.2 26.6.3-47.4 50.5c-26.1 27.7-47.3 50.8-47.2 51.2.2.5 24.4 33 53.8 72.4 29.4 39.4 53.7 72 53.8 72.5.2.6-10.7.8-26.9.7l-27.3-.3-42-58.4c-23.2-32.1-42.6-58.6-43.1-58.8-.6-.2-6.1 5.3-12.3 12.2L119 323.9V417H75V74.6l-4.1 3.9c-14.8 14.3-34.3 42.2-45.4 65-9.2 18.9-13.7 30.9-18.5 49.9C1.2 216.5 0 227 0 256s1.2 39.5 7 62.6c4.9 19.1 9.3 31.1 18.5 49.9 20 40.9 50.7 75.8 88.9 100.9 103.8 68.3 241.4 52.9 327.1-36.6 12-12.5 21.3-23.8 19.6-23.8-.6 0-4.4.9-8.3 2-19.9 5.5-54.8 7.2-73.2 3.6-26.1-5.1-46.3-15.3-62.6-31.6-16.7-16.7-27.7-38.7-32.6-65.1-2.5-13.3-2.5-41.9 0-54.9 5.4-27.6 16.3-48.9 34.5-67.1 19.6-19.7 43.1-31 73.3-35.5 14.7-2.2 40.7-1.4 55.3 1.5 12.1 2.5 28.5 8 29.2 9.8.8 2-8.9 34.4-10.2 33.9-17-7.7-25.9-9.7-45.6-10.3-13.1-.4-18.3-.2-24.8 1.1-27.3 5.6-46.5 20.4-58.2 45.1-7.7 16.3-9.4 24.6-9.4 46.5 0 15.8.4 19.8 2.3 27.3 6.9 27.4 22.8 47.4 46 57.9 23.3 10.6 54.9 10.1 84.1-1.2 4.1-1.6 7.7-2.8 7.9-2.5.2.2 1.4 4.7 2.7 10 1.2 5.2 2.5 9.8 2.8 10.1 1.5 1.5 16.7-28.6 23.2-46 4.8-12.9 10.9-37.1 12.9-51.3 2.2-15.4 2.2-57.2 0-72.6-2-14.1-8.1-38.3-12.9-51.3-8.7-23.5-24.9-52.3-40.5-71.9-20.5-25.8-50.4-50.5-80-66.3C332.2 6.3 277.5-4.1 227.8 1.6z"/></svg>